<?xml version="1.0" encoding="UTF-8" standalone="no"?>
<svg width="160px" height="53px" viewBox="0 0 160 53" version="1.1" xmlns="http://www.w3.org/2000/svg" xmlns:xlink="http://www.w3.org/1999/xlink" xmlns:sketch="http://www.bohemiancoding.com/sketch/ns">
    <!-- Generator: Sketch 3.5.1 (25234) - http://www.bohemiancoding.com/sketch -->
    <title>Page 1</title>
    <desc>Created with Sketch.</desc>
    <defs></defs>
    <g id="Page-2" stroke="none" stroke-width="1" fill="none" fill-rule="evenodd" sketch:type="MSPage">
        <g id="Home" sketch:type="MSArtboardGroup" transform="translate(-245.000000, -52.000000)" fill="#FFFFFF">
            <g id="Group-9" sketch:type="MSLayerGroup" transform="translate(-51.000000, -25.000000)">
                <g id="Page-1" transform="translate(296.000000, 77.000000)" sketch:type="MSShapeGroup">
                    <path d="M7.65912195,30.129561 C8.50985366,30.129561 9.30334959,29.996878 10.0298537,29.7315122 C10.7583089,29.4654959 11.3853008,29.0602927 11.919935,28.5250081 C12.4474146,27.9864715 12.8649756,27.308748 13.1687154,26.4892358 C13.467252,25.6716748 13.6187967,24.7090732 13.6187967,23.6033821 L13.6187967,21.5292358 L10.619122,21.6697236 C9.35798374,21.729561 8.30042276,21.8713496 7.45034146,22.0924878 C6.59700813,22.3181789 5.91538211,22.6290732 5.40286179,23.0277724 C4.89034146,23.4258211 4.52481301,23.9058211 4.30302439,24.4755772 C4.07733333,25.0420813 3.96546341,25.6807805 3.96546341,26.3962276 C3.96546341,27.6820813 4.30562602,28.6284228 4.98269919,29.2267967 C5.6643252,29.8264715 6.55733333,30.129561 7.65912195,30.129561 L7.65912195,30.129561 Z M14.6659512,32.7942764 L13.8900163,29.6046829 L13.7261138,29.6046829 C13.2610732,30.2342764 12.7979837,30.7767154 12.3381463,31.2313496 C11.8776585,31.6859837 11.3748943,32.0586667 10.8279024,32.3546016 C10.2809106,32.6472846 9.6740813,32.8638699 9.00221138,33.0024065 C8.33099187,33.1448455 7.5544065,33.214439 6.67115447,33.214439 C5.70855285,33.214439 4.81814634,33.0759024 4.00773984,32.8046829 C3.19928455,32.5321626 2.49489431,32.112 1.90042276,31.5467967 C1.304,30.9750894 0.840910569,30.2654959 0.504650407,29.4063089 C0.16904065,28.5451707 -6.5040651e-05,27.5266341 -6.5040651e-05,26.3513496 C-6.5040651e-05,24.0599675 0.808390244,22.2967154 2.42530081,21.0641951 C4.04221138,19.8362276 6.49749593,19.1624065 9.80026016,19.0518374 L13.6610732,18.9048455 L13.6610732,17.4563902 C13.6610732,16.5204553 13.5570081,15.7367154 13.3553821,15.107122 C13.1537561,14.4762276 12.8578211,13.9734634 12.4773333,13.5851707 C12.0890407,13.2014309 11.6142439,12.9263089 11.0470894,12.755252 C10.4851382,12.5900488 9.83082927,12.5061463 9.1043252,12.5061463 C7.94725203,12.5061463 6.86302439,12.6726504 5.86530081,13.0082602 C4.86562602,13.3438699 3.90562602,13.7510244 2.98009756,14.2245203 L1.63960976,11.3510244 C2.67180488,10.7942764 3.82562602,10.3175285 5.09717073,9.92403252 C6.37261789,9.53313821 7.70595122,9.33671545 9.1043252,9.33671545 C10.5345691,9.33671545 11.7657886,9.48110569 12.8103415,9.76468293 C13.8529431,10.052813 14.7108293,10.508748 15.3898537,11.1305366 C16.0695285,11.7523252 16.5768455,12.5458211 16.9098537,13.5149268 C17.2487154,14.4762276 17.4152195,15.6450081 17.4152195,17.0147642 L17.4152195,32.7942764 L14.6659512,32.7942764 Z M29.732878,30.0876748 C29.9865366,30.0876748 30.2675122,30.0753171 30.5862114,30.0453984 C30.8971057,30.0174309 31.2027967,29.9823089 31.4941789,29.9406829 C31.7901138,29.8964553 32.0587317,29.8483252 32.3026341,29.7917398 C32.5491382,29.7416585 32.7351545,29.6870244 32.8567805,29.6473496 L32.8567805,32.5416585 C32.6753171,32.625561 32.446374,32.708813 32.1653984,32.7940163 C31.8870244,32.8805203 31.5787317,32.952065 31.2424715,33.0164553 C30.9068618,33.0756423 30.5562927,33.1270244 30.1959675,33.1621463 C29.8323902,33.1966179 29.4740163,33.2141789 29.1234472,33.2141789 C28.2577561,33.2141789 27.4519024,33.1023089 26.7130407,32.8805203 C25.9689756,32.6574309 25.3322276,32.2678374 24.7897886,31.7253984 C24.2532033,31.1771057 23.8297886,30.4427967 23.5214959,29.508813 C23.2158049,28.5800325 23.0616585,27.4099512 23.0616585,25.9953171 L23.0616585,12.6294634 L19.8076748,12.6294634 L19.8076748,10.931252 L23.0616585,9.29352846 L24.6980813,4.46881301 L26.8997073,4.46881301 L26.8997073,9.75726829 L32.6902764,9.75726829 L32.6902764,12.6294634 L26.8997073,12.6294634 L26.8997073,25.9953171 C26.8997073,27.352065 27.1182439,28.3764553 27.5611707,29.0580813 C28.0014959,29.7442602 28.728,30.0876748 29.732878,30.0876748 Z M43.7747642,12.5060813 C42.1773659,12.5060813 40.916878,13.0478699 39.9861463,14.1431545 C39.0541138,15.2299837 38.5110244,16.8195772 38.356878,18.9047805 L48.6801301,18.9047805 C48.6801301,17.9538862 48.5877724,17.0803902 48.4011057,16.2907967 C48.2072846,15.5031545 47.9165528,14.8267317 47.5133008,14.2667317 C47.1204553,13.7106341 46.6105366,13.2774634 45.9959024,12.9665691 C45.3793171,12.6595772 44.6404553,12.5060813 43.7747642,12.5060813 Z M44.715252,33.214374 C43.1776911,33.214374 41.7702114,32.9529106 40.4986667,32.4364878 C39.2251707,31.9220163 38.131187,31.1642927 37.2154146,30.1724228 C36.2996423,29.1786016 35.5913496,27.9460813 35.0833821,26.4755122 C34.5832195,25.0101463 34.3321626,23.3340488 34.3321626,21.4433171 C34.3321626,19.5454309 34.5611057,17.8420163 35.0241951,16.3441301 C35.4866341,14.8442927 36.1331382,13.5773008 36.9741138,12.539252 C37.8150894,11.496 38.8167154,10.7005528 39.9861463,10.1548618 C41.150374,9.60852033 42.4414309,9.33665041 43.8573659,9.33665041 C45.2401301,9.33665041 46.4856585,9.58510569 47.5906992,10.0794146 C48.6950894,10.5795772 49.6323252,11.2781138 50.4017561,12.1802276 C51.1705366,13.0816911 51.7591545,14.1652683 52.1767154,15.433561 C52.5851707,16.6973008 52.7946016,18.1002276 52.7946016,19.6403902 L52.7946016,22.0104715 L38.2749268,22.0104715 C38.3445203,24.7096585 38.9142764,26.696 39.9861463,27.9701463 C41.056065,29.2403902 42.6456585,29.878439 44.756878,29.878439 C45.4710244,29.878439 46.1305366,29.8452683 46.7419187,29.7737236 C47.3493984,29.7015285 47.936065,29.6039675 48.5032195,29.4686829 C49.070374,29.3340488 49.6180163,29.1675447 50.1506992,28.9659187 C50.6827317,28.7616911 51.2199675,28.532748 51.7643577,28.2842927 L51.7643577,31.6813659 C51.2050081,31.9467317 50.6554146,32.180878 50.1181789,32.3746992 C49.5809431,32.5698211 49.028748,32.7304715 48.4589919,32.856 C47.894439,32.9828293 47.3045203,33.0725854 46.6996423,33.1272195 C46.0882602,33.1870569 45.4313496,33.214374 44.715252,33.214374 Z M60.7043902,32.7941463 L56.8839024,32.7941463 L56.8839024,0.14699187 L60.7043902,0.14699187 L60.7043902,32.7941463 Z M70.1047154,32.7941463 L66.2861789,32.7941463 L66.2861789,9.75739837 L70.1047154,9.75739837 L70.1047154,32.7941463 Z M65.9934959,3.52650407 C65.9934959,2.68813008 66.2068293,2.07869919 66.6321951,1.69756098 C67.057561,1.32227642 67.5869919,1.13300813 68.2198374,1.13300813 C68.524878,1.13300813 68.8162602,1.17723577 69.0874797,1.26894309 C69.3606504,1.36195122 69.5973984,1.50634146 69.7990244,1.69756098 C70.0052033,1.89463415 70.1671545,2.14308943 70.2861789,2.44617886 C70.4006504,2.74796748 70.462439,3.10829268 70.462439,3.52650407 C70.462439,4.33495935 70.2439024,4.94439024 69.7990244,5.3398374 C69.3606504,5.7398374 68.8331707,5.93691057 68.2198374,5.93691057 C67.5869919,5.93691057 67.057561,5.74243902 66.6321951,5.3495935 C66.2068293,4.96 65.9934959,4.35317073 65.9934959,3.52650407 Z M93.1881626,32.7940813 L89.6636098,19.8698537 C89.6070244,19.6155447 89.5374309,19.3339187 89.4522276,19.0178211 C89.369626,18.7036748 89.286374,18.3713171 89.1985691,18.0233496 C89.1192195,17.6747317 89.0294634,17.3170081 88.9371057,16.9540813 C88.848,16.5879024 88.7608455,16.2347317 88.6736911,15.8841626 C88.4798699,15.0744065 88.2782439,14.2347317 88.0668618,13.3638374 L87.9426341,13.3638374 C87.745561,14.2470894 87.5595447,15.0913171 87.3754797,15.9036748 C87.2213333,16.6054634 87.0574309,17.3228618 86.883122,18.065626 C86.708813,18.8096911 86.5442602,19.4386341 86.3881626,19.9544065 L82.7810081,32.7940813 L78.3530407,32.7940813 L72.4584065,9.75733333 L76.4649106,9.75733333 L79.2141789,22.0103415 C79.3533659,22.6386341 79.4925528,23.3202602 79.6317398,24.0552195 C79.7715772,24.7908293 79.905561,25.5160325 80.0349919,26.2360325 C80.1592195,26.9605854 80.2710894,27.6376585 80.368,28.2724553 C80.4623089,28.9111545 80.5423089,29.4295285 80.5969431,29.8360325 L80.7237724,29.8360325 C80.7933659,29.4718049 80.8876748,28.984 81.0099512,28.3765203 C81.1244228,27.766439 81.2590569,27.1244878 81.4053984,26.4474146 C81.5517398,25.7716423 81.703935,25.0965203 81.8580813,24.4311545 C82.0122276,23.7690407 82.1592195,23.2044878 82.2977561,22.744 L86.0545041,9.75733333 L90.166374,9.75733333 L93.772878,22.744 C93.8997073,23.2200976 94.0440976,23.7800976 94.2040976,24.4213984 C94.368,25.0653008 94.5240976,25.7209106 94.6756423,26.3836748 C94.830439,27.0477398 94.969626,27.6890407 95.0964553,28.3043252 C95.2232846,28.9196098 95.3156423,29.4295285 95.3702764,29.8360325 L95.4971057,29.8360325 C95.5367805,29.4718049 95.6037724,28.984 95.6935285,28.3765203 C95.7858862,27.766439 95.8951545,27.1010732 96.0193821,26.3706667 C96.1462114,25.6461138 96.2808455,24.9033496 96.4297886,24.1404228 C96.5767805,23.3761951 96.723122,22.6698537 96.8798699,22.0103415 L99.7533659,9.75733333 L103.655805,9.75733333 L97.6987317,32.7940813 L93.1881626,32.7940813 Z M112.006439,30.129561 C112.862374,30.129561 113.650667,29.996878 114.379122,29.7315122 C115.108228,29.4654959 115.73522,29.0602927 116.267252,28.5250081 C116.799935,27.9864715 117.215545,27.308748 117.518634,26.4892358 C117.817821,25.6716748 117.966764,24.7090732 117.966764,23.6033821 L117.966764,21.5292358 L114.969041,21.6697236 C113.710504,21.729561 112.653593,21.8713496 111.797659,22.0924878 C110.946927,22.3181789 110.26465,22.6290732 109.75278,23.0277724 C109.242211,23.4258211 108.875382,23.9058211 108.653593,24.4755772 C108.426602,25.0420813 108.314732,25.6807805 108.314732,26.3962276 C108.314732,27.6820813 108.658797,28.6284228 109.332618,29.2267967 C110.014244,29.8264715 110.904,30.129561 112.006439,30.129561 Z M119.01652,32.7942764 L118.239935,29.6046829 L118.070829,29.6046829 C117.610992,30.2342764 117.150504,30.7767154 116.685463,31.2313496 C116.225626,31.6859837 115.722862,32.0586667 115.177171,32.3546016 C114.630829,32.6472846 114.025951,32.8638699 113.354732,33.0024065 C112.680911,33.1448455 111.901724,33.214439 111.021073,33.214439 C110.05587,33.214439 109.170667,33.0759024 108.357008,32.8046829 C107.548553,32.5321626 106.844813,32.112 106.250341,31.5467967 C105.653268,30.9750894 105.190829,30.2654959 104.854569,29.4063089 C104.516358,28.5451707 104.350504,27.5266341 104.350504,26.3513496 C104.350504,24.0599675 105.158309,22.2967154 106.772618,21.0641951 C108.387577,19.8362276 110.847415,19.1624065 114.148228,19.0518374 L118.00839,18.9048455 L118.00839,17.4563902 C118.00839,16.5204553 117.908878,15.7367154 117.705301,15.107122 C117.503675,14.4762276 117.210341,13.9734634 116.82465,13.5851707 C116.438959,13.2014309 115.961561,12.9263089 115.396358,12.755252 C114.829203,12.5900488 114.182699,12.5061463 113.456195,12.5061463 C112.297821,12.5061463 111.212943,12.6726504 110.21587,13.0082602 C109.215545,13.3438699 108.254894,13.7510244 107.330016,14.2245203 L105.986276,11.3510244 C107.023675,10.7942764 108.175545,10.3175285 109.449041,9.92403252 C110.722537,9.53313821 112.058472,9.33671545 113.456195,9.33671545 C114.884488,9.33671545 116.115707,9.48110569 117.16026,9.76468293 C118.202862,10.052813 119.060748,10.508748 119.739772,11.1305366 C120.418797,11.7523252 120.924163,12.5458211 121.261724,13.5149268 C121.598634,14.4762276 121.764488,15.6450081 121.764488,17.0147642 L121.764488,32.7942764 L119.01652,32.7942764 Z M137.082992,9.33658537 C137.490797,9.33658537 137.942829,9.35284553 138.445593,9.38926829 C138.953561,9.42504065 139.38413,9.47837398 139.749008,9.54796748 L139.244943,13.0705691 C138.854049,13.0009756 138.450797,12.9430894 138.038439,12.8923577 C137.62478,12.8442276 137.236488,12.8221138 136.874211,12.8221138 C135.993561,12.8221138 135.189659,12.998374 134.461203,13.3541463 C133.734049,13.7105691 133.110309,14.2198374 132.582829,14.8852033 C132.060553,15.5505691 131.654699,16.3453659 131.366569,17.2793496 C131.077789,18.2094309 130.93665,19.2396748 130.93665,20.3752846 L130.93665,32.7941463 L127.118114,32.7941463 L127.118114,9.75739837 L130.222504,9.75739837 L130.682341,13.9733333 L130.851447,13.9733333 C131.200065,13.3743089 131.57535,12.7895935 131.976,12.2321951 C132.374049,11.6721951 132.821528,11.1817886 133.319089,10.7544715 C133.814049,10.3245528 134.368195,9.98373984 134.988033,9.72487805 C135.600715,9.46471545 136.299252,9.33658537 137.082992,9.33658537 Z M150.699642,12.5060813 C149.107447,12.5060813 147.845659,13.0478699 146.913626,14.1431545 C145.985496,15.2299837 145.443057,16.8195772 145.289561,18.9047805 L155.612163,18.9047805 C155.612163,17.9538862 155.519805,17.0803902 155.328585,16.2907967 C155.139317,15.5031545 154.845333,14.8267317 154.447285,14.2667317 C154.047285,13.7106341 153.542569,13.2774634 152.927285,12.9665691 C152.310699,12.6595772 151.567285,12.5060813 150.699642,12.5060813 Z M151.647285,33.214374 C150.10452,33.214374 148.701593,32.9529106 147.428098,32.4364878 C146.157203,31.9220163 145.059967,31.1642927 144.144846,30.1724228 C143.229724,29.1786016 142.52013,27.9460813 142.015415,26.4755122 C141.510049,25.0101463 141.259642,23.3340488 141.259642,21.4433171 C141.259642,19.5454309 141.493138,17.8420163 141.952976,16.3441301 C142.413463,14.8442927 143.067122,13.5773008 143.906146,12.539252 C144.741268,11.496 145.746797,10.7005528 146.913626,10.1548618 C148.083057,9.60852033 149.370862,9.33665041 150.786146,9.33665041 C152.169561,9.33665041 153.41574,9.58510569 154.51948,10.0794146 C155.62452,10.5795772 156.565008,11.2781138 157.333138,12.1802276 C158.101919,13.0816911 158.693789,14.1652683 159.104846,15.433561 C159.517203,16.6973008 159.723382,18.1002276 159.723382,19.6403902 L159.723382,22.0104715 L145.204358,22.0104715 C145.273951,24.7096585 145.846309,26.696 146.913626,27.9701463 C147.984846,29.2403902 149.574439,29.878439 151.689561,29.878439 C152.403057,29.878439 153.062569,29.8452683 153.668748,29.7737236 C154.28078,29.7015285 154.866146,29.6039675 155.433301,29.4686829 C155.997854,29.3340488 156.547447,29.1675447 157.07948,28.9659187 C157.611512,28.7616911 158.149398,28.532748 158.69639,28.2842927 L158.69639,31.6813659 C158.138992,31.9467317 157.590049,32.180878 157.046959,32.3746992 C156.512325,32.5698211 155.954927,32.7304715 155.392976,32.856 C154.82322,32.9828293 154.238504,33.0725854 153.627122,33.1272195 C153.022894,33.1870569 152.358829,33.214374 151.647285,33.214374" id="Fill-1"></path>
                    <path d="M46.4452683,44.5319024 C47.1386016,43.4060488 47.911935,42.8427967 48.7646179,42.8427967 C49.657626,42.8427967 50.1044553,43.3058862 50.1044553,44.232065 C50.1044553,44.4974309 50.0290081,44.9559675 49.8781138,45.6089756 L49.5542114,47.0899512 C49.4436423,47.5914146 49.3883577,48.030439 49.3883577,48.4057236 C49.3883577,48.8050732 49.5353496,49.0053984 49.8293333,49.0053984 C50.0699837,49.0053984 50.3373008,48.9091382 50.6312846,48.7179187 L50.857626,49.084748 C50.3106341,49.5582439 49.8007154,49.7943415 49.3278699,49.7943415 C48.9805528,49.7943415 48.7041301,49.6824715 48.4986016,49.4580813 C48.2924228,49.2336911 48.1896585,48.9299512 48.1896585,48.5462114 C48.1896585,48.1624715 48.2690081,47.5979187 48.4277073,46.851252 L48.7158374,45.5536911 C48.8381138,45.0483252 48.899252,44.6580813 48.899252,44.3849106 C48.899252,43.891252 48.7073821,43.644748 48.3236423,43.644748 C47.8586016,43.644748 47.3805528,43.9614959 46.8888455,44.5962927 C46.3971382,45.230439 46.0862439,45.8535285 45.9555122,46.465561 L45.2823415,49.672065 L44.113561,49.672065 L45.7415285,41.9250732 C45.8189268,41.5575935 45.8579512,41.3371057 45.8579512,41.2642602 C45.8579512,40.872065 45.5639675,40.6762927 44.9766504,40.6762927 L44.878439,40.6762927 L44.9890081,40.1501138 L47.296,40.1501138 L46.8062439,42.451252 C46.659252,43.1361301 46.4940488,43.8301138 46.3106341,44.5319024 L46.4452683,44.5319024 Z M56.3588943,43.8465691 C56.1670244,43.5447805 55.8509268,43.3938862 55.4106016,43.3938862 C54.6964553,43.3938862 54.0980813,43.8478699 53.6141789,44.755187 C53.1309268,45.6631545 52.8889756,46.5964878 52.8889756,47.555187 C52.8889756,48.5216911 53.1523902,49.0055935 53.6785691,49.0055935 C54.0948293,49.0055935 54.531252,48.6973008 54.9878374,48.0813659 C55.4450732,47.4654309 55.7468618,46.7922602 55.8938537,46.0618537 L56.3588943,43.8465691 Z M55.6486504,47.7815285 L55.5693008,47.7815285 C54.969626,49.1233171 54.1884878,49.7945366 53.2258862,49.7945366 C52.7159675,49.7945366 52.3192195,49.593561 52.0356423,49.1916098 C51.752065,48.7903089 51.6102764,48.2277073 51.6102764,47.5064065 C51.6102764,46.355187 51.968,45.2885203 52.6840976,44.3057561 C53.4001951,43.3223415 54.2866992,42.8306341 55.3429593,42.8306341 C55.9101138,42.8306341 56.3992195,42.9815285 56.8115772,43.2833171 L57.3624715,42.9652683 L57.766374,42.9652683 L56.9097886,46.9795772 C56.7868618,47.555187 56.726374,48.0182764 56.726374,48.3688455 C56.726374,48.7929106 56.8623089,49.0055935 57.1361301,49.0055935 C57.372878,49.0055935 57.6746667,48.8969756 58.0414959,48.6810407 L58.2684878,49.0485203 C57.6681626,49.5460813 57.0788943,49.7945366 56.4993821,49.7945366 C55.846374,49.7945366 55.5205203,49.4478699 55.5205203,48.7545366 C55.5205203,48.4891707 55.5634472,48.1646179 55.6486504,47.7815285 Z M60.0489106,49.6722602 L58.8801301,49.6722602 L59.9324878,44.6355122 C59.9812683,44.4033171 60.0059837,44.2153496 60.0059837,44.0729106 C60.0059837,43.6774634 59.7139512,43.4797398 59.1305366,43.4797398 L59.0329756,43.4797398 L59.1428943,42.9529106 L61.4622439,42.9529106 L61.1259837,44.5320976 L61.2482602,44.5320976 C61.9253333,43.4055935 62.6863089,42.8429919 63.531187,42.8429919 C64.4241951,42.8429919 64.8710244,43.3060813 64.8710244,44.2322602 C64.8710244,44.497626 64.7955772,44.9561626 64.6446829,45.6091707 L64.3201301,47.0894959 C64.2102114,47.5916098 64.1549268,48.0306341 64.1549268,48.4052683 C64.1549268,48.8052683 64.3019187,49.0055935 64.5959024,49.0055935 C64.8359024,49.0055935 65.1032195,48.9093333 65.3972033,48.7174634 L65.6235447,49.0849431 C65.0765528,49.558439 64.5672846,49.7945366 64.0937886,49.7945366 C63.747122,49.7945366 63.4706992,49.6826667 63.2645203,49.4582764 C63.0583415,49.2338862 62.9555772,48.9294959 62.9555772,48.5464065 C62.9555772,48.1626667 63.0349268,47.5981138 63.1942764,46.8514472 L63.4817561,45.5538862 C63.6040325,45.0478699 63.6658211,44.6582764 63.6658211,44.3851057 C63.6658211,43.8914472 63.4739512,43.6442927 63.0902114,43.6442927 C62.6251707,43.6442927 62.1490732,43.958439 61.6612683,44.5867317 C61.1741138,45.2156748 60.8606179,45.8413659 60.7220813,46.4657561 L60.0489106,49.6722602 Z M71.1252033,43.8465691 C70.9333333,43.5447805 70.6172358,43.3938862 70.1769106,43.3938862 C69.4627642,43.3938862 68.8637398,43.8478699 68.3804878,44.755187 C67.8972358,45.6631545 67.6552846,46.5964878 67.6552846,47.555187 C67.6552846,48.5216911 67.9186992,49.0055935 68.444878,49.0055935 C68.8611382,49.0055935 69.2969106,48.6973008 69.7541463,48.0813659 C70.2113821,47.4654309 70.5131707,46.7922602 70.6601626,46.0618537 L71.1252033,43.8465691 Z M70.4149593,47.7815285 L70.3356098,47.7815285 C69.735935,49.1233171 68.9547967,49.7945366 67.9921951,49.7945366 C67.481626,49.7945366 67.084878,49.593561 66.8019512,49.1916098 C66.518374,48.7903089 66.3765854,48.2277073 66.3765854,47.5064065 C66.3765854,46.355187 66.7343089,45.2885203 67.4504065,44.3057561 C68.1665041,43.3223415 69.0523577,42.8306341 70.1092683,42.8306341 C70.5782114,42.8306341 70.9886179,42.9307967 71.339187,43.1304715 C71.4042276,42.7473821 71.4510569,42.5125854 71.4796748,42.4267317 L71.6026016,41.8270569 C71.659187,41.5454309 71.6878049,41.3581138 71.6878049,41.2638049 C71.6878049,40.8722602 71.3964228,40.6764878 70.8130081,40.6764878 L70.7154472,40.6764878 L70.8247154,40.1503089 L73.1323577,40.1503089 L71.6760976,46.9795772 C71.5531707,47.555187 71.4920325,48.0182764 71.4920325,48.3688455 C71.4920325,48.7929106 71.6286179,49.0055935 71.902439,49.0055935 C72.139187,49.0055935 72.4403252,48.8969756 72.8078049,48.6810407 L73.0347967,49.0485203 C72.4344715,49.5460813 71.8452033,49.7945366 71.2656911,49.7945366 C70.6126829,49.7945366 70.2868293,49.4478699 70.2868293,48.7545366 C70.2868293,48.4891707 70.3297561,48.1646179 70.4149593,47.7815285 Z M78.7255285,49.6722602 L77.5320325,49.6722602 C77.5320325,49.4842927 77.5853659,49.051122 77.6913821,48.3720976 C77.7973984,47.6924228 77.8871545,47.1857561 77.9606504,46.8514472 L78.2481301,45.5538862 C78.3704065,45.0478699 78.4315447,44.6582764 78.4315447,44.3851057 C78.4315447,43.8914472 78.2396748,43.6442927 77.8565854,43.6442927 C77.3915447,43.6442927 76.9128455,43.9616911 76.4217886,44.5958374 C75.9300813,45.2306341 75.6185366,45.8537236 75.4884553,46.4657561 L74.8152846,49.6722602 L73.6458537,49.6722602 L74.6988618,44.6355122 C74.7476423,44.4033171 74.7723577,44.2153496 74.7723577,44.0729106 C74.7723577,43.6774634 74.4803252,43.4797398 73.8969106,43.4797398 L73.7993496,43.4797398 L73.9092683,42.9529106 L76.2286179,42.9529106 L75.8923577,44.5320976 L76.0139837,44.5320976 C76.6917073,43.4055935 77.4526829,42.8429919 78.2969106,42.8429919 C79.1905691,42.8429919 79.6373984,43.3060813 79.6373984,44.2322602 C79.6373984,44.334374 79.6289431,44.4338862 79.6126829,44.5320976 L79.7349593,44.5320976 C80.4165854,43.4055935 81.177561,42.8429919 82.0178862,42.8429919 C82.9115447,42.8429919 83.3577236,43.3060813 83.3577236,44.2322602 C83.3577236,44.497626 83.2822764,44.9561626 83.1313821,45.6091707 L82.8068293,47.0894959 C82.700813,47.5753496 82.6481301,48.0137236 82.6481301,48.4052683 C82.6481301,48.8052683 82.7925203,49.0055935 83.0826016,49.0055935 C83.323252,49.0055935 83.5905691,48.9093333 83.8845528,48.7174634 L84.1108943,49.0849431 C83.5801626,49.558439 83.0702439,49.7945366 82.5804878,49.7945366 C82.2377236,49.7945366 81.9626016,49.6826667 81.7544715,49.4582764 C81.5463415,49.2338862 81.4422764,48.9294959 81.4422764,48.5464065 C81.4422764,48.1626667 81.5222764,47.5981138 81.6809756,46.8514472 L81.8956098,45.871935 C82.0705691,45.0680325 82.158374,44.5724228 82.158374,44.3851057 C82.158374,43.8914472 81.9645528,43.6442927 81.5769106,43.6442927 C81.1489431,43.6442927 80.7060163,43.9187642 80.2494309,44.4677073 C79.7921951,45.016 79.4721951,45.5903089 79.2881301,46.1899837 L79.0865041,47.0894959 C79.0331707,47.318439 78.9596748,47.7652683 78.8660163,48.4299837 C78.7723577,49.0946992 78.7255285,49.5090081 78.7255285,49.6722602 Z M89.6122276,43.8465691 C89.4203577,43.5447805 89.1042602,43.3938862 88.663935,43.3938862 C87.9497886,43.3938862 87.3507642,43.8478699 86.8675122,44.755187 C86.3842602,45.6631545 86.1423089,46.5964878 86.1423089,47.555187 C86.1423089,48.5216911 86.4057236,49.0055935 86.9319024,49.0055935 C87.3481626,49.0055935 87.783935,48.6973008 88.2411707,48.0813659 C88.6984065,47.4654309 89.0001951,46.7922602 89.147187,46.0618537 L89.6122276,43.8465691 Z M88.9019837,47.7815285 L88.8226341,47.7815285 C88.2229593,49.1233171 87.4418211,49.7945366 86.4792195,49.7945366 C85.9686504,49.7945366 85.5725528,49.593561 85.2889756,49.1916098 C85.0053984,48.7903089 84.8636098,48.2277073 84.8636098,47.5064065 C84.8636098,46.355187 85.2213333,45.2885203 85.9374309,44.3057561 C86.6535285,43.3223415 87.5400325,42.8306341 88.5962927,42.8306341 C89.1634472,42.8306341 89.6525528,42.9815285 90.0649106,43.2833171 L90.6158049,42.9652683 L91.0197073,42.9652683 L90.163122,46.9795772 C90.0401951,47.555187 89.9790569,48.0182764 89.9790569,48.3688455 C89.9790569,48.7929106 90.1156423,49.0055935 90.3894634,49.0055935 C90.6262114,49.0055935 90.9273496,48.8969756 91.2948293,48.6810407 L91.5218211,49.0485203 C90.9214959,49.5460813 90.3322276,49.7945366 89.7527154,49.7945366 C89.0997073,49.7945366 88.7738537,49.4478699 88.7738537,48.7545366 C88.7738537,48.4891707 88.8167805,48.1646179 88.9019837,47.7815285 Z M96.8699187,43.8465691 C96.6780488,43.5447805 96.3619512,43.3938862 95.9209756,43.3938862 C95.2074797,43.3938862 94.6084553,43.8478699 94.1252033,44.755187 C93.6419512,45.6631545 93.4,46.5964878 93.4,47.555187 C93.4,48.5216911 93.6634146,49.0055935 94.1895935,49.0055935 C94.6052033,49.0055935 95.041626,48.6973008 95.4988618,48.0813659 C95.9560976,47.4654309 96.2578862,46.7922602 96.404878,46.0618537 L96.8699187,43.8465691 Z M96.1596748,47.7815285 L96.0803252,47.7815285 C95.4806504,49.1233171 94.6995122,49.7945366 93.7369106,49.7945366 C93.2263415,49.7945366 92.8302439,49.593561 92.5460163,49.1916098 C92.2630894,48.7903089 92.1213008,48.2277073 92.1213008,47.5064065 C92.1213008,46.355187 92.4790244,45.2885203 93.195122,44.3057561 C93.9112195,43.3223415 94.7970732,42.8306341 95.8539837,42.8306341 C96.3229268,42.8306341 96.7326829,42.9307967 97.0839024,43.1304715 C97.1489431,42.7473821 97.1957724,42.5125854 97.2243902,42.4267317 L97.3473171,41.8270569 C97.4039024,41.5454309 97.4325203,41.3581138 97.4325203,41.2638049 C97.4325203,40.8722602 97.1411382,40.6764878 96.5577236,40.6764878 L96.4601626,40.6764878 L96.5700813,40.1503089 L98.8770732,40.1503089 L97.420813,46.9795772 C97.2978862,47.555187 97.236748,48.0182764 97.236748,48.3688455 C97.236748,48.7929106 97.3733333,49.0055935 97.6471545,49.0055935 C97.8839024,49.0055935 98.1850407,48.8969756 98.5525203,48.6810407 L98.7795122,49.0485203 C98.179187,49.5460813 97.5899187,49.7945366 97.0104065,49.7945366 C96.3573984,49.7945366 96.0315447,49.4478699 96.0315447,48.7545366 C96.0315447,48.4891707 96.0744715,48.1646179 96.1596748,47.7815285 Z M100.822829,46.2024065 L100.945756,46.2024065 C101.683967,46.2024065 102.292748,46.0228943 102.772098,45.6638699 C103.251447,45.3048455 103.491447,44.8398049 103.491447,44.268748 C103.491447,43.7093984 103.248195,43.430374 102.762992,43.430374 C102.359089,43.430374 101.981203,43.6840325 101.630634,44.192 C101.280065,44.6999675 101.010797,45.3705366 100.822829,46.2024065 Z M103.86413,48.1054959 C103.949984,48.1588293 103.992911,48.2628943 103.992911,48.4176911 C103.992911,48.752 103.795837,49.0654959 103.402341,49.3575285 C103.008195,49.6489106 102.481366,49.7946016 101.820553,49.7946016 C101.090146,49.7946016 100.500228,49.5643577 100.052098,49.1032195 C99.6033171,48.6420813 99.3789268,48.0098862 99.3789268,47.2059837 C99.3789268,46.1126504 99.7314472,45.110374 100.437138,44.1985041 C101.14348,43.2866341 102.034537,42.8306992 103.11161,42.8306992 C103.642341,42.8306992 104.052748,42.956878 104.34478,43.2098862 C104.636163,43.4628943 104.781854,43.816065 104.781854,44.268748 C104.781854,44.9458211 104.429984,45.5357398 103.726244,46.0372033 C103.022504,46.5393171 102.163317,46.7897236 101.147382,46.7897236 L100.932748,46.7897236 C100.859902,46.7897236 100.783805,46.7858211 100.706407,46.7780163 C100.690146,46.8918374 100.682341,47.0674472 100.682341,47.3041951 C100.682341,48.4385041 101.140878,49.0056585 102.059252,49.0056585 C102.772748,49.0056585 103.374374,48.7051707 103.86413,48.1054959 Z M112.810927,44.8072195 C112.810927,44.3870569 112.712065,44.0507967 112.514341,43.7977886 C112.316618,43.5447805 112.040195,43.4179512 111.685073,43.4179512 C111.309789,43.4179512 111.012553,43.5194146 110.794667,43.7210407 C110.57613,43.9233171 110.466862,44.180878 110.466862,44.4950244 C110.466862,44.772748 110.571577,45.0094959 110.779057,45.2046179 C110.987187,45.4010407 111.309789,45.5942114 111.746211,45.7860813 C112.749789,46.2348618 113.251902,46.8839675 113.251902,47.732748 C113.251902,48.3486829 113.015154,48.8462439 112.541659,49.2254309 C112.068163,49.6046179 111.44052,49.7945366 110.65678,49.7945366 C110.024585,49.7945366 109.521821,49.6670569 109.148488,49.4120976 C108.775154,49.1571382 108.588488,48.8137236 108.588488,48.3812033 C108.588488,48.111935 108.662634,47.9070569 108.812228,47.7659187 C108.961171,47.6254309 109.149789,47.555187 109.378081,47.555187 C109.378081,48.0729106 109.50361,48.4761626 109.754667,48.7636423 C110.005724,49.051122 110.357593,49.1948618 110.809626,49.1948618 C111.71174,49.1948618 112.162472,48.8072195 112.162472,48.031935 C112.162472,47.7346992 112.066211,47.4823415 111.874992,47.2761626 C111.683122,47.0706341 111.356618,46.8612033 110.89548,46.6491707 C110.295805,46.3636423 109.893203,46.0690081 109.687024,45.7652683 C109.480846,45.460878 109.378081,45.1090081 109.378081,44.7096585 C109.378081,44.1626667 109.601171,43.7145366 110.048,43.3659187 C110.494829,43.0173008 111.076943,42.8429919 111.794992,42.8429919 C112.410927,42.8429919 112.891577,42.956813 113.236293,43.1857561 C113.581008,43.4140488 113.753366,43.6956748 113.753366,44.0299837 C113.753366,44.5483577 113.43922,44.8072195 112.810927,44.8072195 Z M117.174439,49.1825691 C117.86387,49.1825691 118.413463,48.7741138 118.82387,47.9559024 C119.233626,47.1376911 119.438504,46.2310244 119.438504,45.2359024 C119.438504,44.0729756 119.030699,43.4915122 118.214439,43.4915122 C117.533463,43.4915122 116.982569,43.9012683 116.562407,44.7214309 C116.142244,45.5415935 115.932163,46.4534634 115.932163,47.4570407 C115.932163,48.6076098 116.346472,49.1825691 117.174439,49.1825691 Z M118.361431,42.8306992 C119.099642,42.8306992 119.681106,43.0531382 120.105821,43.4973659 C120.529886,43.9422439 120.741919,44.5848455 120.741919,45.4251707 C120.741919,46.5393171 120.401756,47.5454959 119.72013,48.4456585 C119.038504,49.3451707 118.143545,49.7946016 117.033301,49.7946016 C116.278829,49.7946016 115.689561,49.5663089 115.264846,49.1090732 C114.84078,48.6524878 114.628748,48.0183415 114.628748,47.2059837 C114.628748,46.0801301 114.972163,45.0693984 115.659642,44.1737886 C116.347122,43.2781789 117.247935,42.8306992 118.361431,42.8306992 Z M125.686894,43.6690081 L124.279415,43.6690081 L122.976,49.7698211 C122.759415,50.7779512 122.443317,51.5155122 122.027707,51.9825041 C121.610797,52.4494959 121.021528,52.6829919 120.258602,52.6829919 C120.022504,52.6829919 119.779252,52.6485203 119.530797,52.5789268 L119.646569,52.0039675 C119.854699,52.0605528 120.046569,52.0891707 120.222179,52.0891707 C120.626081,52.0891707 120.94413,51.9161626 121.176325,51.5688455 C121.409171,51.2221789 121.617301,50.6270569 121.800715,49.7828293 L123.116488,43.6690081 L121.978276,43.6690081 L122.051772,43.2163252 L123.257626,42.9529106 L123.39226,42.2673821 C123.685593,40.7707967 124.479089,40.0215285 125.772098,40.0215285 C126.306732,40.0215285 126.709984,40.1067317 126.981203,40.2758374 C127.252423,40.4449431 127.387707,40.6706341 127.387707,40.9516098 C127.387707,41.4946992 127.041041,41.7659187 126.347707,41.7659187 C126.347707,40.9867317 126.135675,40.5971382 125.71161,40.5971382 C125.405268,40.5971382 125.16787,40.7233171 124.998114,40.9763252 C124.829008,41.2293333 124.695675,41.620878 124.597463,42.1516098 L124.43226,42.9529106 L125.821528,42.9529106 L125.686894,43.6690081 Z M129.04026,48.7300163 L129.254244,49.1950569 C128.690992,49.5950569 128.12839,49.7947317 127.565138,49.7947317 C126.65522,49.7947317 126.200585,49.3069268 126.200585,48.3319675 C126.200585,48.0178211 126.241561,47.667252 126.322862,47.2796098 L127.08774,43.6692033 L126.133593,43.6692033 L126.250016,43.1670894 C127.065626,43.1670894 127.704325,42.5817236 128.164813,41.4109919 L128.740423,41.4109919 L128.41587,42.9531057 L129.933268,42.9531057 L129.780423,43.6692033 L128.263024,43.6692033 L127.504,47.2425366 C127.401886,47.7244878 127.351154,48.0835122 127.351154,48.3202602 C127.351154,48.7768455 127.573593,49.0051382 128.018472,49.0051382 C128.356683,49.0051382 128.697496,48.9134309 129.04026,48.7300163 Z M131.390049,49.7825041 L131.298341,44.3847805 C131.294439,44.0907967 131.235902,43.8670569 131.124033,43.7116098 C131.011512,43.556813 130.794276,43.4794146 130.472325,43.4794146 L130.349398,43.4794146 L130.521106,42.9525854 L132.405984,42.9525854 C132.430699,44.715187 132.443057,46.620878 132.443057,48.6690081 L132.491837,48.6690081 C133.581268,46.7555122 134.513301,44.8888455 135.288585,43.0696585 L136.328585,43.0202276 C136.504195,45.219252 136.59135,47.1307967 136.59135,48.7542114 L136.677203,48.7542114 C137.358829,47.9177886 137.921431,47.091122 138.366309,46.2729106 C138.811187,45.4553496 139.032976,44.8055935 139.032976,44.3236423 C139.032976,43.9405528 138.854114,43.6894959 138.495089,43.571122 C138.568585,43.0774634 138.815089,42.8303089 139.235252,42.8303089 C139.676228,42.8303089 139.896065,43.1425041 139.896065,43.7668943 C139.896065,44.9707967 138.84761,46.934374 136.750699,49.6595772 L135.514927,49.7942114 L135.325008,44.3730732 C134.945821,45.2745366 134.06452,47.0286829 132.681106,49.6355122 L131.390049,49.7825041 Z M145.434407,43.8465691 C145.242537,43.5447805 144.926439,43.3938862 144.486114,43.3938862 C143.771967,43.3938862 143.172943,43.8478699 142.689691,44.755187 C142.206439,45.6631545 141.964488,46.5964878 141.964488,47.555187 C141.964488,48.5216911 142.227902,49.0055935 142.754081,49.0055935 C143.170341,49.0055935 143.606114,48.6973008 144.06335,48.0813659 C144.520585,47.4654309 144.822374,46.7922602 144.969366,46.0618537 L145.434407,43.8465691 Z M144.724163,47.7815285 L144.644813,47.7815285 C144.045138,49.1233171 143.264,49.7945366 142.301398,49.7945366 C141.790829,49.7945366 141.394732,49.593561 141.111154,49.1916098 C140.827577,48.7903089 140.685789,48.2277073 140.685789,47.5064065 C140.685789,46.355187 141.043512,45.2885203 141.75961,44.3057561 C142.475707,43.3223415 143.362211,42.8306341 144.418472,42.8306341 C144.985626,42.8306341 145.474732,42.9815285 145.887089,43.2833171 L146.437984,42.9652683 L146.841886,42.9652683 L145.985301,46.9795772 C145.862374,47.555187 145.801236,48.0182764 145.801236,48.3688455 C145.801236,48.7929106 145.938472,49.0055935 146.211642,49.0055935 C146.44839,49.0055935 146.750179,48.8969756 147.117659,48.6810407 L147.344,49.0485203 C146.743675,49.5460813 146.154407,49.7945366 145.574894,49.7945366 C144.922537,49.7945366 144.596033,49.4478699 144.596033,48.7545366 C144.596033,48.4891707 144.638959,48.1646179 144.724163,47.7815285 Z M152.294179,44.6481301 C152.294179,43.9873171 152.127024,43.6569106 151.792715,43.6569106 C151.404423,43.6569106 150.994016,44.0386992 150.558894,44.8009756 C150.125073,45.5639024 149.803772,46.4269919 149.595642,47.3895935 L149.124098,49.6725203 L147.955317,49.6725203 L149.008325,44.6357724 C149.057106,44.4035772 149.081821,44.2156098 149.081821,44.0731707 C149.081821,43.6770732 148.748813,43.4793496 148.084098,43.4793496 L147.980033,43.4793496 L148.095805,42.9531707 L150.31174,42.9531707 L150.048325,44.7580488 L150.177106,44.7580488 C150.511415,44.0113821 150.841821,43.504065 151.168325,43.2347967 C151.494179,42.9655285 151.874016,42.8308943 152.306537,42.8308943 C152.992065,42.8308943 153.334829,43.118374 153.334829,43.6933333 C153.334829,44.3300813 152.987512,44.6481301 152.294179,44.6481301 Z M155.249951,46.2024065 L155.372228,46.2024065 C156.111089,46.2024065 156.71987,46.0228943 157.19922,45.6638699 C157.678569,45.3048455 157.918569,44.8398049 157.918569,44.268748 C157.918569,43.7093984 157.675317,43.430374 157.190114,43.430374 C156.786211,43.430374 156.408325,43.6840325 156.057756,44.192 C155.707187,44.6999675 155.437268,45.3705366 155.249951,46.2024065 Z M158.291252,48.1054959 C158.377106,48.1588293 158.420033,48.2628943 158.420033,48.4176911 C158.420033,48.752 158.222959,49.0654959 157.829463,49.3575285 C157.435317,49.6489106 156.908488,49.7946016 156.247675,49.7946016 C155.517268,49.7946016 154.92735,49.5643577 154.478569,49.1032195 C154.029789,48.6420813 153.806049,48.0098862 153.806049,47.2059837 C153.806049,46.1126504 154.158569,45.110374 154.86426,44.1985041 C155.570602,43.2866341 156.461659,42.8306992 157.538732,42.8306992 C158.068813,42.8306992 158.47987,42.956878 158.771902,43.2098862 C159.063285,43.4628943 159.208976,43.816065 159.208976,44.268748 C159.208976,44.9458211 158.857106,45.5357398 158.153366,46.0372033 C157.449626,46.5393171 156.590439,46.7897236 155.574504,46.7897236 L155.35987,46.7897236 C155.287024,46.7897236 155.210927,46.7858211 155.133528,46.7780163 C155.117268,46.8918374 155.109463,47.0674472 155.109463,47.3041951 C155.109463,48.4385041 155.568,49.0056585 156.486374,49.0056585 C157.19987,49.0056585 157.801496,48.7051707 158.291252,48.1054959" id="Fill-15" opacity="0.8"></path>
                </g>
            </g>
        </g>
    </g>
</svg>